<svg viewBox="0 0 380.9 85.1" id="a" class="a" image-rendering="optimizeQuality" shape-rendering="geometricPrecision" xmlns="http://www.w3.org/2000/svg" xmlns:xlink="http://www.w3.org/1999/xlink">
    <defs>
        <style>
            svg .a{display:none}
            svg .a:target{display:inline}
        </style>
        
        <path id="b" transform="scale(.1)" d="m1190 133c-14-52-55-94-107-108-95-25-475-25-475-25s-380 0-475 25c-52 14-94 56-108 108-25 95-25 292-25 292s0 198 25 293c14 52 56 94 108 107 95 26 475 26 475 26s380 0 475-26c52-13 93-55 107-107 26-95 26-293 26-293s0-197-26-292zm-704 475v-365l316 182-316 183z"/>
        <rect id="c" fill="#fff" width="50" height="50" x="35" y="18"/>
        <g id="d">
            <path d="m176.3 77.4c-2.4-1.6-4.1-4.1-5.1-7.6-1-3.4-1.5-8-1.5-13.6v-7.7c0-5.7 0.6-10.3 1.7-13.8 1.2-3.5 3-6 5.4-7.6 2.5-1.6 5.7-2.4 9.7-2.4 3.9 0 7.1 0.8 9.5 2.4s4.1 4.2 5.2 7.6 1.7 8 1.7 13.8v7.7c0 5.7-0.5 10.2-1.6 13.7-1.1 3.4-2.8 6-5.2 7.6s-5.7 2.4-9.8 2.4c-4.2-0.1-7.6-0.9-10-2.5zm13.5-8.4c0.7-1.7 1-4.6 1-8.5v-16.6c0-3.8-0.3-6.6-1-8.4s-1.8-2.6-3.5-2.6c-1.6 0-2.8 0.9-3.4 2.6-0.7 1.8-1 4.6-1 8.4v16.6c0 3.9 0.3 6.8 1 8.5 0.6 1.7 1.8 2.6 3.5 2.6 1.6 0 2.7-0.8 3.4-2.6z"/>
            <path d="m360.9 56.3v2.7c0 3.4 0.1 6 0.3 7.7s0.6 3 1.3 3.7c0.6 0.8 1.6 1.2 3 1.2 1.8 0 3-0.7 3.7-2.1s1-3.7 1.1-7l10.3 0.6c0.1 0.5 0.1 1.1 0.1 1.9 0 4.9-1.3 8.6-4 11s-6.5 3.6-11.4 3.6c-5.9 0-10-1.9-12.4-5.6s-3.6-9.4-3.6-17.2v-9.3c0-8 1.2-13.8 3.7-17.5s6.7-5.5 12.6-5.5c4.1 0 7.3 0.8 9.5 2.3s3.7 3.9 4.6 7c0.9 3.2 1.3 7.6 1.3 13.2v9.1h-20.1zm1.5-22.4c-0.6 0.8-1 2-1.2 3.7s-0.3 4.3-0.3 7.8v3.8h8.8v-3.8c0-3.4-0.1-6-0.3-7.8s-0.7-3-1.3-3.7-1.6-1.1-2.8-1.1c-1.4-0.1-2.3 0.3-2.9 1.1z"/>
            <path d="M147.1,55.3L133.5,6h11.9l4.8,22.3c1.2,5.5,2.1,10.2,2.7,14.1h0.3c0.4-2.8,1.3-7.4,2.7-14l5-22.4h11.9 L159,55.3v23.6h-11.8V55.3z"/>
            <path d="m241.6 25.7v53.3h-9.4l-1-6.5h-0.3c-2.5 4.9-6.4 7.4-11.5 7.4-3.5 0-6.1-1.2-7.8-3.5s-2.5-5.9-2.5-10.9v-39.8h12v39.1c0 2.4 0.3 4.1 0.8 5.1s1.4 1.5 2.6 1.5c1 0 2-0.3 3-1 1-0.6 1.7-1.4 2.1-2.4v-42.3h12z"/>
            <path d="m303.1 25.7v53.3h-9.4l-1-6.5h-0.3c-2.5 4.9-6.4 7.4-11.5 7.4-3.5 0-6.1-1.2-7.8-3.5s-2.5-5.9-2.5-10.9v-39.8h12v39.1c0 2.4 0.3 4.1 0.8 5.1s1.4 1.5 2.6 1.5c1 0 2-0.3 3-1 1-0.6 1.7-1.4 2.1-2.4v-42.3h12z"/>
            <path d="M274.2,15.7h-11.9v63.2h-11.7V15.7h-11.9V6h35.5V15.7z"/>
            <path d="m342.8 34.2c-0.7-3.4-1.9-5.8-3.5-7.3s-3.9-2.3-6.7-2.3c-2.2 0-4.3 0.6-6.2 1.9-1.9 1.2-3.4 2.9-4.4 4.9h-0.1v-28.1h-11.6v75.6h9.9l1.2-5h0.3c0.9 1.8 2.3 3.2 4.2 4.3 1.9 1 3.9 1.6 6.2 1.6 4.1 0 7-1.9 8.9-5.6s2.9-9.6 2.9-17.5v-8.4c-0.1-6.1-0.4-10.8-1.1-14.1zm-11 21.7c0 3.9-0.2 6.9-0.5 9.1s-0.9 3.8-1.6 4.7c-0.8 0.9-1.8 1.4-3 1.4-1 0-1.9-0.2-2.7-0.7s-1.5-1.2-2-2.1v-30.2c0.4-1.4 1.1-2.6 2.1-3.6 1-0.9 2.1-1.4 3.2-1.4 1.2 0 2.2 0.5 2.8 1.4 0.7 1 1.1 2.6 1.4 4.8 0.3 2.3 0.4 5.5 0.4 9.6v7z"/>
        </g>
    </defs>
    <svg>
        <g id="white" class="a" fill="#fff">
            <use xlink:href="#b"/>
            <use xlink:href="#d"/>
        </g>
    </svg>
    <svg>
        <g id="black" class="a">
            <use xlink:href="#c"/>
            <use xlink:href="#b"/>
            <use xlink:href="#d"/>
        </g>
    </svg>
    <svg>
        <g id="red" class="a">
            <use xlink:href="#c"/>
            <use xlink:href="#b" fill="red"/>
            <use xlink:href="#d" fill="#282828"/>
        </g>
    </svg>
    
</svg>
